<svg width="24" height="24" viewBox="0 0 24 24">
  <path fill-rule="evenodd" d="M11.9746457,0 C8.65459058,0 5.66122969,1.356 3.48560649,3.529 L1.95335044,2 L1.95335044,7 L6.96399807,7 L5.61513173,5.654 C7.24760073,4.023 9.48836234,3 11.9746457,3 C16.9482145,3 20.9938114,7.037 20.9938114,12 C20.9938114,16.963 16.9482145,21 11.9746457,21 C7.34079877,21 3.51567037,17.493 3.01460561,13 L0.0002,13 C0.510283928,19.158 5.67125098,24 11.9746457,24 C18.6157581,24 24.0002,18.627 24.0002,12 C24.0002,5.373 18.6157581,0 11.9746457,0"/>
</svg>
