<svg xmlns="http://www.w3.org/2000/svg" width="16" height="14" viewBox="0 0 16 14">
  <path fill="#292929" d="M13.659375,4.18125 C13.40625,1.83125 11.41875,0 9,0 C7.4,0 5.990625,0.8 5.14375,2.021875 C4.884375,1.915625 4.6,1.85625 4.303125,1.85625 C3.08125,1.85625 2.090625,2.93125 2.071875,4.15 C0.825,4.546875 0,5.765625 0,7.046875 C0,8.615625 1.271875,10 2.840625,10 L7.59375,10 L7.59375,5.59375 C7.59375,5.36875 7.775,5.1875 8,5.1875 C8.225,5.1875 8.40625,5.36875 8.40625,5.59375 L8.40625,10 L13.159375,10 C14.728125,10 16,8.615625 16,7.046875 C16,5.65 14.990625,4.41875 13.659375,4.18125 Z M7.59375,12.621875 L6.096875,11.146875 C5.9375,10.990625 5.68125,10.990625 5.521875,11.15 C5.365625,11.309375 5.365625,11.565625 5.525,11.725 L7.7125,13.88125 C7.790625,13.95625 7.89375,13.996875 7.996875,13.996875 C8.05,13.996875 8.103125,13.9875 8.153125,13.965625 C8.2,13.946875 8.24375,13.915625 8.28125,13.88125 L10.46875,11.725 C10.628125,11.56875 10.63125,11.309375 10.471875,11.15 C10.315625,10.990625 10.05625,10.9875 9.896875,11.146875 L8.40625,12.621875 L8.40625,10 L7.59375,10 L7.59375,12.621875 Z"/>
</svg>
