<svg width="24" height="24" viewBox="0 0 24 24">
  <g fill-rule="evenodd">
    <polygon points="18 22 20 24 24 20 22 18"/>
    <path d="M7.9995,10.0005 L9.9995,12.0005 L15.3385,6.6625 C15.7575,7.5205 15.9995,8.4815 15.9995,9.5005 C15.9995,13.0845 13.0835,16.0005 9.4995,16.0005 C7.4545,16.0005 5.6275,15.0465 4.4355,13.5645 L7.9995,10.0005 Z M14.5645,5.4355 L9.9995,10.0005 L7.9995,8.0005 L3.6615,12.3375 C3.2425,11.4795 2.9995,10.5185 2.9995,9.5005 C2.9995,5.9165 5.9155,3.0005 9.4995,3.0005 C11.5455,3.0005 13.3725,3.9535 14.5645,5.4355 Z M18.9995,15.0005 L17.9105,13.9105 C18.6035,12.5915 18.9995,11.0925 18.9995,9.5005 C18.9995,4.2525 14.7475,0.0005 9.4995,0.0005 C4.2525,0.0005 -0.0005,4.2525 -0.0005,9.5005 C-0.0005,14.7475 4.2525,19.0005 9.4995,19.0005 C11.0925,19.0005 12.5915,18.6035 13.9105,17.9105 L14.9995,19.0005 L18.9995,15.0005 Z"/>
    <polygon points="21 18 19 16 16 19 18 21"/>
  </g>
</svg>
