<svg xmlns="http://www.w3.org/2000/svg" width="16" height="18" viewBox="0 0 16 18">
  <path fill="#292929" fill-rule="evenodd" d="M6,2.25203497 L6,5.32907052e-14 L10,5.32907052e-14 L10,2.25203497 C10.9327883,2.4921181 11.799736,2.89620685 12.5682708,3.43172915 L14,2 L16,4 L14.5682708,5.43172915 C15.4707866,6.72694094 16,8.30166826 16,10 C16,14.418278 12.418278,18 8,18 C3.581722,18 0,14.418278 0,10 C0,6.27232114 2.54954557,3.14012056 6,2.25203497 Z M8,16 C11.3137085,16 14,13.3137085 14,10 C14,6.6862915 11.3137085,4 8,4 C4.6862915,4 2,6.6862915 2,10 C2,13.3137085 4.6862915,16 8,16 Z M8,5 C10.7614237,5 13,7.23857625 13,10 C13,11.3807119 12.4403559,12.6307119 11.5355339,13.5355339 L8,10 L8,5 Z"/>
</svg>
