<svg xmlns="http://www.w3.org/2000/svg" width="28" height="28" viewBox="0 0 28 28">
  <path fill="#FF6665" fill-rule="evenodd" d="M21.3270226,30 L21.3270226,19.1842451 L24.9551094,19.1842451 L25.5369451,14.768929 L21.3270226,14.768929 L21.3270226,11.6998223 C21.3270226,10.8429202 22.0217234,10.1482193 22.8786255,10.1482193 L25.6054506,10.1482193 L25.6054506,6.17785092 L21.7946416,6.17785092 C19.0978606,6.17785092 16.9117065,8.364005 16.9117065,11.060786 L16.9117065,14.7688675 L13.266478,14.7688675 L13.266478,19.1841836 L16.9117065,19.1841836 L16.9117065,30 L6,30 C3.790861,30 2,28.209139 2,26 L2,6 C2,3.790861 3.790861,2 6,2 L26,2 C28.209139,2 30,3.790861 30,6 L30,26 C30,28.209139 28.209139,30 26,30 L21.3270226,30 Z" transform="translate(-2 -2)"/>
</svg>
