<?xml version="1.0" encoding="UTF-8"?>
<svg xmlns="http://www.w3.org/2000/svg" width="24" height="24" viewBox="0 0 24 24">
  <g fill="none" fill-rule="evenodd">
    <polygon fill="#F4F9FE" points="0 0 0 16 3 19 14 19 14 0"></polygon>
    <path fill="#34D5AC" d="M10.5,7 L10.5,8.5 L9,8.5 C9,9.329 9.672,10 10.5,10 C11.328,10 12,9.329 12,8.5 C12,7.671 11.328,7 10.5,7"></path>
    <polygon fill="#C7D5E4" points="2 3 12 3 12 2 2 2"></polygon>
    <polygon fill="#C7D5E4" points="2 5 12 5 12 4 2 4"></polygon>
    <polygon fill="#C7D5E4" points="2 8 8 8 8 7 2 7"></polygon>
    <polygon fill="#C7D5E4" points="2 10 8 10 8 9 2 9"></polygon>
    <polygon fill="#3A94EF" points="2 16 3 16 3 15 2 15"></polygon>
    <polygon fill="#3A94EF" points="4 17 5 17 5 14 4 14"></polygon>
    <polygon fill="#3A94EF" points="6 17 7 17 7 13 6 13"></polygon>
    <polygon fill="#3A94EF" points="8 17 9 17 9 12 8 12"></polygon>
    <path fill="#0C1620" d="M18.8333333,22.5 C18.8333333,22.224 19.0573333,22 19.3333333,22 L15.3333333,22 C15.6093333,22 15.8333333,22.224 15.8333333,22.5 C15.8333333,22.776 15.6093333,23 15.3333333,23 L19.3333333,23 C19.0573333,23 18.8333333,22.776 18.8333333,22.5"></path>
    <polygon fill="#C7D5E4" points="0 16 3 16 3 19"></polygon>
    <polygon fill="#C7D5E4" points="11 13 5 19 11 19"></polygon>
    <polygon fill="#3A94EF" points="8 16 8 17 9 17 9 15"></polygon>
    <polygon fill="#8091A3" points="14 24 21 24 21 23 14 23"></polygon>
    <polygon fill="#8091A3" points="11 22 24 22 24 13 11 13"></polygon>
    <polygon fill="#F4F9FE" points="12 21 23 21 23 14 12 14"></polygon>
  </g>
</svg>
