<?xml version="1.0" encoding="UTF-8"?>
<svg xmlns="http://www.w3.org/2000/svg" width="24" height="24" viewBox="0 0 24 24">
  <g fill="none" fill-rule="evenodd">
    <polygon fill="#F4F9FE" points="0 0 0 19 5 24 19 24 19 5 19 0"></polygon>
    <polygon fill="#C7D5E4" points="0 19 5 24 5 19"></polygon>
    <polygon fill="#C7D5E4" points="3 10 16 10 16 9 3 9"></polygon>
    <polygon fill="#C7D5E4" points="3 8 16 8 16 7 3 7"></polygon>
    <polygon fill="#C7D5E4" points="7 6 16 6 16 5 7 5"></polygon>
    <polygon fill="#C7D5E4" points="7 4 16 4 16 3 7 3"></polygon>
    <path fill="#0C1620" d="M4.64200141,3.837 L4.32386993,4.906 L4.97624081,4.906 L4.66112957,3.837 L4.64200141,3.837 Z M6.33333333,6 L5.30645324,6 L5.17758985,5.576 L4.1205074,5.576 L3.99164401,6 L3,6 L4.10339273,3 L5.23195409,3 L6.33333333,6 Z"></path>
    <polygon fill="#34D5AC" points="14.001 14.001 12 12.001 10 14.001 9 15.001 7 17.001 3.999 14.001 0 18.001 0 19 .999 19 3.999 16.001 7 19 10 16.001 12 14.001 14.001 16.001 19 11.001 18.001 10"></polygon>
    <polygon fill="#8091A3" points="22 19.926 19.926 22 17.333 19.407 19.407 17.333"></polygon>
    <polygon fill="#000000" points="19.333 22.444 20.888 24 24 20.89 22.444 19.333"></polygon>
    <polygon fill="#000000" points="20 16.889 16.889 20 15.333 18.444 18.444 15.333"></polygon>
    <path fill="#8091A3" d="M13,6 C9.134,6 6,9.134 6,13 C6,16.866 9.134,20 13,20 C16.866,20 20,16.866 20,13 C20,9.134 16.866,6 13,6 M13,9 C15.205,9 17,10.794 17,13 C17,15.206 15.205,17 13,17 C10.795,17 9,15.206 9,13 C9,10.794 10.795,9 13,9"></path>
  </g>
</svg>
