<svg xmlns="http://www.w3.org/2000/svg" width="28" height="28" viewBox="0 0 28 28">
  <path fill="#FF6665" fill-rule="evenodd" d="M6,2 L26,2 C28.209139,2 30,3.790861 30,6 L30,26 C30,28.209139 28.209139,30 26,30 L6,30 C3.790861,30 2,28.209139 2,26 L2,6 C2,3.790861 3.790861,2 6,2 Z M10.5223326,25.4177585 L10.5223326,12.7800638 L6.31582688,12.7800638 L6.31582688,25.4177585 L10.5223326,25.4177585 Z M10.1401549,10.4403098 C10.5771207,10.0212027 10.7953804,9.5022779 10.7954442,8.88340774 C10.7833895,8.25216401 10.5648109,7.73005011 10.1399636,7.31719362 C9.71498861,6.90446469 9.15046014,6.69800456 8.44637813,6.69800456 C7.74235991,6.69800456 7.16883827,6.90446469 6.72555809,7.31719362 C6.28259681,7.73005011 6.06089294,8.25216401 6.06089294,8.88340774 C6.06089294,9.50253303 6.27634624,10.0214579 6.70750797,10.4403098 C7.13860592,10.8591617 7.69988155,11.0686196 8.39178132,11.0686196 L8.41015034,11.0686196 C9.12647836,11.0686196 9.70318907,10.8591617 10.1401549,10.4403098 Z M25.6550251,25.4177585 L25.6550251,18.1696492 C25.6550251,16.3005376 25.212,14.8860592 24.3257585,13.9269795 C23.4395809,12.9680911 22.267918,12.4884556 20.8111526,12.4884556 C19.1819863,12.4884556 17.9260683,13.1813121 17.0416128,14.5641549 L17.0416128,12.7799362 L12.8351071,12.7799362 C12.8715262,13.581221 12.8715262,17.7939772 12.8351071,25.4177585 L17.0416128,25.4176948 L17.0416128,18.3523189 C17.0416128,17.8911162 17.0839636,17.5512893 17.1691116,17.3330296 C17.3509522,16.9077995 17.624,16.5466059 17.9885103,16.2493212 C18.352574,15.9518451 18.8019772,15.8031708 19.336082,15.8031708 C20.7443736,15.8031708 21.4482642,16.7563189 21.4482642,18.662041 L21.4482642,25.4177585 L25.6550251,25.4177585 Z" transform="translate(-2 -2)"/>
</svg>
