<svg xmlns="http://www.w3.org/2000/svg" width="452" height="143" viewBox="0 0 452 143">
  <defs>
    <linearGradient id="a" x1="50%" x2="50%" y1="100%" y2="0%">
      <stop offset="0%" stop-color="#2387EB"/>
      <stop offset="100%" stop-color="#58EDCD"/>
    </linearGradient>
  </defs>
  <g fill="none" fill-rule="evenodd">
    <polygon fill="#1B252F" points="0 117 0 7 19.794 7 19.794 100.025 86 100.025 86 117"/>
    <g transform="translate(81 33)">
      <path fill="url(#a)" d="M35.0754231,73.6128252 L7.46132263,15.4356643 L0.316570991,0.383160062 L19.5640873,0.383160062 L39.6557928,45.3406073 L43.4102927,54.5710937 L35.0754231,73.6128252 Z"/>
      <path fill="#1B252F" d="M7.38665646,109.626351 L3.46389584e-14,109.626351 L3.46389584e-14,92.0648482 L7.38665646,92.0648482 C12.3392329,92.0648482 16.1380848,91.0927578 18.7832121,89.2762944 C21.4283395,87.459831 23.7639291,84.3377869 25.7899834,79.9101595 L27.478362,76.5042923 L41.4919046,44.4891405 L59.5575558,0.383160062 L78.4673964,0.383160062 L40.3100395,88.4248276 C34.1193171,102.61594 23.1448561,109.626351 7.38665646,109.626351 Z" transform="translate(8.97)"/>
    </g>
    <path fill="#1B252F" d="M189.290503 117L189.290503 48.5947902 176 48.5947902 176 33.186686 189.460894 33.186686 189.460894 27.5991317C189.460894 22.4066562 190.312849 17.8914625 192.01676 14.0535456 193.72067 10.2156287 195.935754 7.33719161 198.662011 5.41823444 201.388268 3.49927727 204.114525 2.11649783 206.840782 1.2698987 209.567039.423299566 212.2365 0 214.849162 0 219.506517 0 223.681098.592619392 227.372905 1.77785818 231.064712 2.96309696 233.592179 4.12011491 234.955307 5.24891462L237 6.94211288 229.502793 19.6410999C225.186221 17.0448634 221.324022 15.7467438 217.916201 15.7467438 211.441341 15.7467438 208.203911 19.9797395 208.203911 28.4457308L208.203911 33.186686 231.547486 33.186686 231.547486 48.5947902 208.203911 48.5947902 208.203911 117 189.290503 117zM248.380117 90.3376L248.380117 48.7856 236 48.7856 236 33.352 248.380117 33.352 248.380117 16.9008 267.204678 13 267.204678 33.352 292.473684 33.352 292.473684 48.7856 267.204678 48.7856 267.204678 90.8464C267.204678 98.7610675 270.200781 102.7184 276.192982 102.7184 278.115009 102.7184 280.093567 102.3792 282.128655 101.7008 284.163743 101.0224 285.690058 100.344 286.707602 99.6656L288.403509 98.648 294 112.7248C287.555556 116.908268 280.828459 119 273.818713 119 256.859649 119 248.380117 109.445868 248.380117 90.3376zM302 75.584466C302 63.5339814 306.202841 53.2572807 314.608519 44.7543689 323.014198 36.2514572 333.294119 32 345.448276 32 356.693712 32 366.263693 36.1951448 374.158215 44.5854369 382.052737 52.975729 386 63.0834951 386 74.9087379L385.488844 82.1728155 321.59432 82.1728155C322.957404 88.592233 326.024341 93.5757282 330.795132 97.123301 335.565923 100.670874 341.245435 102.44466 347.833671 102.44466 357.034483 102.44466 365.099391 100.023302 372.028398 95.1805825L379.525355 109.03301C369.643002 115.677669 358.965516 119 347.492901 119 334.884381 119 324.150101 115.086407 315.290061 107.259223 306.43002 99.4320397 302 88.8737873 302 75.584466zM321.423935 68.3203883L367.598377 68.3203883C366.689656 62.3514572 364.077078 57.5368941 359.760649 53.876699 355.44422 50.216504 350.332658 48.3864078 344.425963 48.3864078 338.973631 48.3864078 334.089249 50.216504 329.772819 53.876699 325.45639 57.5368941 322.673427 62.3514572 321.423935 68.3203883zM403 118L403 33.7029703 421.755172 33.7029703 421.755172 50.3920792C423.670114 45.3967005 427.133907 41.0825074 432.146552 37.449505 437.159196 33.8165025 443.777011 32 452 32L452 52.6059406C431.836782 52.6059406 421.755172 62.9372946 421.755172 83.6L421.755172 118 403 118z"/>
  </g>
</svg>
