<svg xmlns="http://www.w3.org/2000/svg" width="355" height="118" viewBox="0 0 355 118">
  <defs>
    <linearGradient id="a" x1="50%" x2="50%" y1="0%" y2="100%">
      <stop offset="0%" stop-color="#58EDCD"/>
      <stop offset="100%" stop-color="#2387EB"/>
    </linearGradient>
  </defs>
  <g fill="none" fill-rule="evenodd">
    <polygon fill="#040E18" points="0 1 19.072 1 19.072 76.008 62.336 76.008 60.288 92.392 0 92.392"/>
    <polygon fill="url(#a)" points="84.776 89.872 69.723 55.257 61.279 35.84 57 26 77.736 26 93.352 69.904"/>
    <path fill="#040E18" d="M65.944 102.288C68.418679 102.97067 70.9359872 103.312 73.496 103.312 75.8853453 103.312 77.8053261 102.736006 79.256 101.584 80.7066739 100.431994 81.9439949 98.4053478 82.968 95.504L85.016 89.872 93.592 69.904 108.184 26 127.768 26 100.76 94.736C99.2239923 98.5760192 97.7733402 101.925319 96.408 104.784 95.0426598 107.642681 93.4853421 110.03199 91.736 111.952 89.9866579 113.87201 87.8960122 115.301329 85.464 116.24 83.0319878 117.178671 80.0240179 117.648 76.44 117.648 74.2213222 117.648 72.0240109 117.498668 69.848 117.2 67.6719891 116.901332 65.3893453 116.368004 63 115.6L65.944 102.288zM143.496 39.552L133 39.552 133 25.6 143.496 25.6 143.496 23.424C143.496 19.3279795 144.093327 15.7866816 145.288 12.8 146.482673 9.8133184 148.125323 7.38134272 150.216 5.504 152.306677 3.62665728 154.759986 2.24000448 157.576 1.344 160.392014.44799552 163.463983 1.13686838e-13 166.792 1.13686838e-13 168.925344 1.13686838e-13 171.165322.12799872 173.512.384 175.858678.64000128 178.269321 1.15199616 180.744 1.92L178.312 14.976C175.58132 14.2933299 172.978679 13.952 170.504 13.952 168.199988 13.952 166.109343 14.6133267 164.232 15.936 162.354657 17.2586733 161.416 19.6266496 161.416 23.04L161.416 25.6 176.904 25.6 176.904 39.552 161.416 39.552 161.416 92.416 143.496 92.416 143.496 39.552zM193.496 39.744L183 39.744 183 25.792 193.496 25.792 193.496 8 211.416 8 211.416 25.792 226.776 25.792 226.776 39.744 211.416 39.744 211.416 70.592C211.416 74.0906842 212.141326 76.4586605 213.592 77.696 215.042674 78.9333395 216.919988 79.552 219.224 79.552 220.418673 79.552 221.63466 79.4880006 222.872 79.36 224.10934 79.2319994 225.325327 78.997335 226.52 78.656L229.08 91.84C226.605321 92.6080038 224.194678 93.1413318 221.848 93.44 219.501322 93.7386682 217.261344 93.888 215.128 93.888 207.789297 93.888 202.349351 92.1386842 198.808 88.64 195.266649 85.1413158 193.496 79.2533747 193.496 70.976L193.496 39.744zM297.488 72C296.293327 79.5093709 293.285357 85.2053139 288.464 89.088 283.642643 92.9706861 276.624046 94.912 267.408 94.912 256.314611 94.912 247.973361 91.8400307 242.384 85.696 236.794639 79.5519693 234 70.8480563 234 59.584 234 53.9519718 234.810659 48.9386886 236.432 44.544 238.053341 40.1493114 240.335985 36.4160154 243.28 33.344 246.224015 30.2719846 249.74398 27.9466746 253.84 26.368 257.93602 24.7893254 262.458642 24 267.408 24 277.648051 24 285.349308 26.9439706 290.512 32.832 295.674692 38.7200294 298.256 46.6559501 298.256 56.64L298.256 63.808 251.92 63.808C252.090668 69.1840269 253.455987 73.3866515 256.016 76.416 258.576013 79.4453485 262.415974 80.96 267.536 80.96 274.618702 80.96 278.799994 77.9733632 280.08 72L297.488 72zM280.976 52.032C280.976 47.423977 279.845345 43.8400128 277.584 41.28 275.322655 38.7199872 271.802691 37.44 267.024 37.44 264.634655 37.44 262.544009 37.8239962 260.752 38.592 258.959991 39.3600038 257.44534 40.4053267 256.208 41.728 254.97066 43.0506733 254.01067 44.5866579 253.328 46.336 252.64533 48.0853421 252.261334 49.9839898 252.176 52.032L280.976 52.032zM312 25.152L329.408 25.152 329.408 34.496C331.626678 30.9973158 334.314651 28.3733421 337.472 26.624 340.629349 24.8746579 343.957316 24 347.456 24 349.162675 24 350.570661 24.0639994 351.68 24.192 352.789339 24.3200006 353.770662 24.4693325 354.624 24.64L352.448 40.896C350.39999 40.3839974 347.882682 40.128 344.896 40.128 342.933324 40.128 341.056009 40.3626643 339.264 40.832 337.471991 41.3013357 335.850674 42.1759936 334.4 43.456 332.863992 44.8213402 331.733337 46.3573248 331.008 48.064 330.282663 49.7706752 329.92 51.519991 329.92 53.312L329.92 91.968 312 91.968 312 25.152z"/>
  </g>
</svg>
