<svg xmlns="http://www.w3.org/2000/svg" width="20" height="26" viewBox="0 0 20 26">
  <g fill-rule="evenodd">
    <path d="M3,10 C3,6.141 6.141,3 10,3 C13.859,3 17,6.141 17,10 C17,11.958 16.189,13.729 14.89,15 L5.11,15 C3.811,13.729 3,11.958 3,10 M20,10 C20,4.478 15.523,0 10,0 C4.477,0 0,4.478 0,10 C0,13.268 1.576,16.16 4,17.984 L4,18 L4.018,18 L15.982,18 L16,18 L16,17.984 C18.424,16.16 20,13.268 20,10"/>
    <polygon points="5 22 15 22 15 19 5 19"/>
    <polygon points="7 26 13 26 13 23 7 23"/>
  </g>
</svg>
