<svg xmlns="http://www.w3.org/2000/svg" viewBox="0 0 24 24"><title>icn-service--seo</title><g id="Layer_2" data-name="Layer 2"><g id="prodct"><rect width="24" height="8" style="fill:#292929"/><rect y="10" width="19" height="9" style="fill:#f2f2f2"/><rect x="1" y="1" width="22" height="6" style="fill:#f2f2f2"/><rect x="2" y="2" width="1" height="4" style="fill:#292929"/><rect x="8" y="14" width="9" height="1" style="fill:#d9d9d9"/><rect x="8" y="12" width="9" height="1" style="fill:#d9d9d9"/><rect x="8" y="16" width="9" height="1" style="fill:#d9d9d9"/><rect x="2" y="12" width="5" height="5" style="fill:#ff6665"/><rect x="2" y="21" width="19" height="3" style="fill:#f2f2f2"/><rect x="10" y="23" width="9" height="1" style="fill:#d9d9d9"/><rect x="4" y="23" width="5" height="1" style="fill:#58ed9f"/><polygon points="23 8 20 8 20 7 18 8.5 20 10 20 9 23 9 23 21 22 21 22 22 24 22 24 21 24 8 23 8" style="fill:#58ed9f"/><path d="M19.62,3a.63.63,0,0,1,.63.62.54.54,0,0,1-.07.27l-.09.2-.19.09a.61.61,0,0,1-.28.07.63.63,0,0,1,0-1.25m0-1a1.63,1.63,0,0,0,0,3.25,1.52,1.52,0,0,0,.71-.17l.92.92L22,5.25l-.92-.92a1.52,1.52,0,0,0,.17-.71A1.63,1.63,0,0,0,19.62,2Z" style="fill:#292929"/><polygon points="2 17 6 13 7 14 7 17 2 17" style="fill:#1a1a1a"/><polygon points="5 14 7 14 6 13 5 14" style="fill:#f2f2f2"/></g></g></svg>