<svg xmlns="http://www.w3.org/2000/svg" viewBox="0 0 24 24"><title>icn-service--growthstrategy</title><g id="Layer_2" data-name="Layer 2"><g id="prodct"><rect width="4" height="4" style="fill:#292929"/><rect x="4" width="4" height="4" style="fill:#f2f2f2"/><rect x="8" width="4" height="4" style="fill:#292929"/><rect x="16" width="4" height="4" style="fill:#292929"/><rect x="12" width="4" height="4" style="fill:#f2f2f2"/><rect y="4" width="4" height="4" style="fill:#f2f2f2"/><rect x="16" y="4" width="4" height="4" style="fill:#f2f2f2"/><rect x="4" y="4" width="4" height="4" style="fill:#292929"/><rect x="12" y="4" width="4" height="4" style="fill:#292929"/><rect x="8" y="4" width="4" height="4" style="fill:#f2f2f2"/><rect y="8" width="4" height="4" style="fill:#292929"/><rect x="4" y="8" width="4" height="4" style="fill:#f2f2f2"/><rect x="8" y="8" width="4" height="4" style="fill:#292929"/><rect x="16" y="8" width="4" height="4" style="fill:#292929"/><rect x="12" y="8" width="4" height="4" style="fill:#f2f2f2"/><rect y="12" width="4" height="4" style="fill:#f2f2f2"/><rect x="16" y="12" width="4" height="4" style="fill:#ff6665"/><rect x="4" y="12" width="4" height="4" style="fill:#292929"/><rect x="12" y="12" width="4" height="4" style="fill:#292929"/><rect x="8" y="12" width="4" height="4" style="fill:#ff6665"/><rect y="16" width="4" height="4" style="fill:#292929"/><rect x="4" y="16" width="4" height="4" style="fill:#ff6665"/><rect x="8" y="16" width="4" height="4" style="fill:#292929"/><rect x="16" y="16" width="4" height="4" style="fill:#292929"/><rect x="20" width="4" height="4" style="fill:#f2f2f2"/><rect x="20" y="4" width="4" height="4" style="fill:#292929"/><rect x="20" y="8" width="4" height="4" style="fill:#ff6665"/><rect x="20" y="16" width="4" height="4" style="fill:#f2f2f2"/><rect x="20" y="12" width="4" height="4" style="fill:#292929"/><rect x="12" y="16" width="4" height="4" style="fill:#ff6665"/><rect x="20" y="20" width="4" height="4" style="fill:#292929"/><rect y="20" width="4" height="4" style="fill:#ff6665"/><rect x="4" y="20" width="4" height="4" style="fill:#292929"/><rect x="12" y="20" width="4" height="4" style="fill:#292929"/><rect x="16" y="20" width="4" height="4" style="fill:#f2f2f2"/><rect x="8" y="20" width="4" height="4" style="fill:#f2f2f2"/></g></g></svg>