<svg xmlns="http://www.w3.org/2000/svg" viewBox="0 0 24 24"><title>icn-service--digitalmarketing</title><g id="Layer_2" data-name="Layer 2"><g id="prodct"><rect x="17" y="20" width="1" height="7" transform="translate(41 6) rotate(90)" style="fill:#bfbfbf"/><rect x="13" y="11" width="9" height="13" transform="translate(35) rotate(90)" style="fill:#bfbfbf"/><rect x="12" y="14" width="11" height="7" style="fill:#fff"/><path d="M19,22.5a.5.5,0,0,1,.5-.5h-4a.5.5,0,0,1,0,1h4A.5.5,0,0,1,19,22.5Z" style="fill:gray"/><polygon points="3 20 3 7 2 7 2 20 2 21 3 21 11 21 11 20 3 20" style="fill:#58ed9f"/><rect x="8" y="12" width="1" height="3" style="fill:#292929"/><path d="M7,9h3a1,1,0,0,1,1,1v1a0,0,0,0,1,0,0H6a0,0,0,0,1,0,0V10A1,1,0,0,1,7,9Z" style="fill:#292929"/><path d="M1,4H4A1,1,0,0,1,5,5V6A0,0,0,0,1,5,6H0A0,0,0,0,1,0,6V5A1,1,0,0,1,1,4Z" style="fill:#58ed9f"/><path d="M14,7h3a1,1,0,0,1,1,1V9a0,0,0,0,1,0,0H13a0,0,0,0,1,0,0V8A1,1,0,0,1,14,7Z" style="fill:#58ed9f"/><path d="M20,4h3a1,1,0,0,1,1,1V6a0,0,0,0,1,0,0H19a0,0,0,0,1,0,0V5A1,1,0,0,1,20,4Z" style="fill:#58ed9f"/><rect x="21" y="7" width="1" height="6" style="fill:#58ed9f"/><rect x="15" y="10" width="1" height="3" style="fill:#58ed9f"/><circle cx="8.5" cy="6.5" r="1.5" style="fill:#292929"/><circle cx="15.5" cy="4.5" r="1.5" style="fill:#58ed9f"/><circle cx="21.5" cy="1.5" r="1.5" style="fill:#58ed9f"/><circle cx="2.5" cy="1.5" r="1.5" style="fill:#58ed9f"/><polygon points="23 14 16 21 23 21 23 14" style="fill:#f2f2f2"/><rect x="19" y="17" width="2" height="1" style="fill:#292929"/><polygon points="21 17 20 17 19 18 21 18 21 17" style="fill:#1a1a1a"/><rect x="14" y="17" width="5" height="1" style="fill:#58ed9f"/><polygon points="9 16 9 15 8 15 8 16 8 17 11 17 11 16 9 16" style="fill:#58ed9f"/></g></g></svg>