<svg xmlns="http://www.w3.org/2000/svg" viewBox="0 0 24 24"><title>icn-service--digitalbusiness</title><g id="Layer_2" data-name="Layer 2"><g id="prodct"><polygon points="0 0 0 16 0 16 3 19 14 19 14 0 0 0" style="fill:#f2f2f2"/><rect x="22" y="13" width="1" height="8" style="fill:#292929"/><rect x="17" y="20" width="1" height="7" transform="translate(41 6) rotate(90)" style="fill:#bfbfbf"/><path d="M10.5,7V8.5H9A1.5,1.5,0,1,0,10.5,7Z" style="fill:#58ed9f"/><rect x="2" y="2" width="10" height="1" style="fill:#d9d9d9"/><rect x="2" y="4" width="10" height="1" style="fill:#d9d9d9"/><rect x="2" y="7" width="6" height="1" style="fill:#d9d9d9"/><rect x="2" y="9" width="6" height="1" style="fill:#d9d9d9"/><rect x="13" y="11" width="9" height="13" transform="translate(35) rotate(90)" style="fill:#bfbfbf"/><rect x="12" y="14" width="11" height="7" style="fill:#fff"/><rect x="4" y="14" width="1" height="3" style="fill:#ff6665"/><rect x="2" y="15" width="1" height="1" style="fill:#ff6665"/><rect x="2" y="16" width="1" height="1" style="fill:#ff6665"/><rect x="6" y="13" width="1" height="4" style="fill:#ff6665"/><rect x="8" y="12" width="1" height="5" style="fill:#ff6665"/><path d="M19,22.5a.5.5,0,0,1,.5-.5h-4a.5.5,0,0,1,0,1h4A.5.5,0,0,1,19,22.5Z" style="fill:gray"/><polygon points="0 16 3 16 3 19 0 16" style="fill:#d9d9d9"/><polygon points="11 13 5 19 11 19 11 13" style="fill:#d9d9d9"/><polygon points="8 16 8 17 9 17 9 15 8 16" style="fill:#b24343"/><polygon points="23 14 16 21 23 21 23 14" style="fill:#f2f2f2"/></g></g></svg>