<svg xmlns="http://www.w3.org/2000/svg" viewBox="0 0 24 24"><title>icn-service--channelstrategy</title><g id="Layer_2" data-name="Layer 2"><g id="prodct"><rect x="13" y="6" width="10" height="7" style="fill:#d9d9d9"/><polygon points="13 6 18 11 23 6 13 6" style="fill:#f2f2f2"/><rect x="18" y="15" width="6" height="6" style="fill:#292929"/><path d="M23,18V17H22a1,1,0,0,0-1,1v1H20v1h1v1h1V20h1V19H22V18Z" style="fill:#f2f2f2"/><rect x="2" width="9" height="11" style="fill:#f2f2f2"/><rect x="3" y="2" width="4" height="1" style="fill:#d9d9d9"/><rect x="3" y="4" width="4" height="1" style="fill:#d9d9d9"/><rect x="8" y="2" width="2" height="3" style="fill:#d9d9d9"/><rect x="3" y="6" width="7" height="1" style="fill:#d9d9d9"/><rect x="3" y="8" width="7" height="1" style="fill:#d9d9d9"/><rect y="15" width="16" height="9" style="fill:#f2f2f2"/><rect y="12" width="16" height="3" style="fill:#292929"/><rect y="15" width="16" height="7" style="fill:#58ed9f"/><rect x="4" y="19" width="8" height="1" style="fill:#f2f2f2"/><rect x="4" y="17" width="8" height="1" style="fill:#f2f2f2"/><circle cx="1.5" cy="13.5" r="0.5" style="fill:#ff6665"/><circle cx="5.5" cy="13.5" r="0.5" style="fill:#58ed9f"/><circle cx="3.5" cy="13.5" r="0.5" style="fill:#bfbfbf"/></g></g></svg>