<svg id="Layer_1" data-name="Layer 1" xmlns="http://www.w3.org/2000/svg" viewBox="0 0 110 110"><defs><style>.cls-1{fill:#292929;}.cls-2{fill:#fff;}</style></defs><title>building</title><path class="cls-1" d="M72.75,106.67l-.24.09a55.39,55.39,0,0,1-28.26,2l-.23,0-15-5.32a55,55,0,1,1,56.4-3Z" transform="translate(0.32 0.29)"/><g id="rocket"><path class="cls-2" d="M45.69,86.6H45L44.75,86c-7.42-20.21-8.38-36.3-2.86-47.84,4.63-9.7,12.16-12.34,12.47-12.45l.41-.14.37.2C66.47,31.54,71.68,43.77,70.21,61.1a96.74,96.74,0,0,1-5.6,24.37l-.23.6-.65,0C63.62,86.11,52.63,86.6,45.69,86.6Zm8.94-58.9c-1.53.66-7.29,3.59-11,11.33-5.1,10.76-4.16,26.5,2.72,45.57,5.9,0,14.22-.36,16.6-.47a95.21,95.21,0,0,0,5.24-23.24C69.61,44.43,65,33.27,54.63,27.7Z" transform="translate(0.32 0.29)"/><rect class="cls-2" x="42.25" y="39.64" width="25" height="2"/><path class="cls-2" d="M54.44,63.85a10,10,0,1,1,10-10A10,10,0,0,1,54.44,63.85Zm0-18a8,8,0,1,0,8,8A8,8,0,0,0,54.44,45.85Z" transform="translate(0.32 0.29)"/><path class="cls-2" d="M36.62,92.21l-1.08-2.16c-3.33-6.67-4.07-12.35-2.19-16.89a12.94,12.94,0,0,1,7.27-7l.63,1.89-.31-1,.31,1A11.11,11.11,0,0,0,35.19,74c-1.44,3.49-1.06,7.85,1.12,13,1.95-5.14,3.9-7.78,5.93-8a2.71,2.71,0,0,1,2.53,1.14L43.1,81.16a.69.69,0,0,0-.61-.27c-.52.08-2.42,1-5.11,9Z" transform="translate(0.32 0.29)"/><path class="cls-2" d="M72.66,92.21l-.77-2.29c-2.68-8-4.59-9-5.11-9a.68.68,0,0,0-.62.29l-1.65-1.13A2.7,2.7,0,0,1,67,78.91c2,.27,4,2.91,5.93,8,2.18-5.15,2.56-9.51,1.13-13A11.11,11.11,0,0,0,68,68.05l.64-1.89a13,13,0,0,1,7.27,7c1.88,4.54,1.14,10.22-2.19,16.89Z" transform="translate(0.32 0.29)"/><path class="cls-2" d="M57.59,90.85h-6a3.25,3.25,0,0,1,0-6.5h6a3.25,3.25,0,0,1,0,6.5Zm-6-4.5a1.25,1.25,0,0,0,0,2.5h6a1.25,1.25,0,0,0,0-2.5Z" transform="translate(0.32 0.29)"/><path class="cls-2" d="M50.94,104.85a1,1,0,0,1-1-1v-10a1,1,0,0,1,2,0v10A1,1,0,0,1,50.94,104.85Z" transform="translate(0.32 0.29)"/><path class="cls-2" d="M39.06,107.92a1.27,1.27,0,0,1-.26,0,1,1,0,0,1-.7-1.23c2.43-8.85,12.84-7.8,12.94-7.79a1,1,0,0,1,.89,1.1,1,1,0,0,1-1.11.89c-.36,0-8.81-.86-10.79,6.33A1,1,0,0,1,39.06,107.92Z" transform="translate(0.32 0.29)"/><path class="cls-2" d="M38.8,107.83a1,1,0,0,1-1-.91,6.89,6.89,0,0,0-6.87-6.57,8.45,8.45,0,0,0-5.32,1.5,1,1,0,0,1-1.16-1.63,10.47,10.47,0,0,1,6.48-1.87,8.9,8.9,0,0,1,8.86,8.38,1,1,0,0,1-.9,1.09Z" transform="translate(0.32 0.29)"/><path class="cls-2" d="M58.34,104.85a1,1,0,0,1-1-1v-10a1,1,0,0,1,2,0v10A1,1,0,0,1,58.34,104.85Z" transform="translate(0.32 0.29)"/><path class="cls-2" d="M70.34,108.45a1,1,0,0,1-1-.78,8.11,8.11,0,0,0-6-6.31,14.14,14.14,0,0,0-4.94-.51,1,1,0,0,1-.22-2c.11,0,11-1.1,13.09,8.37a1,1,0,0,1-.76,1.2Z" transform="translate(0.32 0.29)"/><path class="cls-2" d="M70.44,108.42h0a1,1,0,0,1-1-1,8.91,8.91,0,0,1,8.9-9,10.7,10.7,0,0,1,6.38,1.79,1,1,0,0,1-1.14,1.65,8.57,8.57,0,0,0-5.24-1.44,7,7,0,0,0-6.9,7.11A1,1,0,0,1,70.44,108.42Z" transform="translate(0.32 0.29)"/></g></svg>