<svg id="Layer_1" data-name="Layer 1" xmlns="http://www.w3.org/2000/svg" viewBox="0 0 110 110"><defs><style>.cls-1{fill:#292929;}.cls-2{fill:#fff;}</style></defs><title>family</title><circle class="cls-1" cx="55" cy="55" r="55"/><path class="cls-2" d="M55.36,87.31H54.7c-4.37,0-21-13.47-27.36-24.5C21.91,53.41,20,45,21.85,38.41A17,17,0,0,1,30.56,28a14.78,14.78,0,0,1,11.63-1.52c6.43,1.9,10.93,8,12.84,11.07,1.92-3.07,6.41-9.17,12.84-11.07A14.8,14.8,0,0,1,79.51,28a17,17,0,0,1,8.7,10.45c1.84,6.56-.06,15-5.48,24.4h0C76.36,73.84,59.73,87.31,55.36,87.31ZM38.22,27.86a13.91,13.91,0,0,0-6.7,1.85A15.08,15.08,0,0,0,23.77,39c-1.69,6,.14,13.93,5.3,22.86,2.8,4.85,8,10.67,14.16,16S53.6,85.31,54.7,85.31h.66c2.94,0,19.27-12.49,25.64-23.5h0C86.15,52.88,88,45,86.29,39a15.09,15.09,0,0,0-7.74-9.24,12.86,12.86,0,0,0-10.11-1.35C61.36,30.45,56.76,38.4,55.91,40L55,41.6,54.15,40c-.85-1.57-5.45-9.52-12.53-11.61A11.62,11.62,0,0,0,38.22,27.86Z" transform="translate(-0.03 -0.08)"/></svg>