<svg id="Layer_1" data-name="Layer 1" xmlns="http://www.w3.org/2000/svg" viewBox="0 0 110 110"><defs><style>.cls-1{fill:#292929;}.cls-2{fill:#fff;}</style></defs><title>flexibel</title><path class="cls-1" d="M110.58,54.54a55,55,0,0,1-44.69,54,54.11,54.11,0,0,1-8.11.93c-.73,0-1.46,0-2.2,0a55,55,0,1,1,55-55Z" transform="translate(-0.58 0.46)"/><path class="cls-2" d="M84.6,74.27H29.74a2.78,2.78,0,0,1-2.82-2.74V32a2.78,2.78,0,0,1,2.82-2.74H84.6A2.79,2.79,0,0,1,87.42,32V71.53A2.79,2.79,0,0,1,84.6,74.27Zm-54.86-43a.78.78,0,0,0-.82.74V71.53a.78.78,0,0,0,.82.74H84.6a.78.78,0,0,0,.82-.74V32a.78.78,0,0,0-.82-.74Z" transform="translate(-0.58 0.46)"/><path class="cls-2" d="M89.67,81.27H23.17a3.75,3.75,0,0,1-3.75-3.75V76a3.75,3.75,0,0,1,3.75-3.75h66.5A3.76,3.76,0,0,1,93.42,76v1.5A3.76,3.76,0,0,1,89.67,81.27Zm-66.5-7A1.75,1.75,0,0,0,21.42,76v1.5a1.75,1.75,0,0,0,1.75,1.75h66.5a1.75,1.75,0,0,0,1.75-1.75V76a1.76,1.76,0,0,0-1.75-1.75Z" transform="translate(-0.58 0.46)"/><path class="cls-2" d="M56.42,78.27c-5.45,0-7.29-3.19-7.5-4.88l2-.26c0,.13.53,3.14,5.51,3.14s6-3.12,6-3.25l1.94.49C64.34,73.71,63.12,78.27,56.42,78.27Z" transform="translate(-0.58 0.46)"/><path class="cls-2" d="M59.46,51.66l-.2,0a1.39,1.39,0,0,1-1-.94l-.06-.2-.68-3.07c-.9-.52-2.62-1.73-2.62-3.41a3.74,3.74,0,0,1,3.75-3.75h7.5a3.75,3.75,0,0,1,.07,7.5l-3.31.44-2.39,2.84A1.56,1.56,0,0,1,59.46,51.66Zm-.79-9.39a1.75,1.75,0,0,0-1.25.52,1.77,1.77,0,0,0-.5,1.23c0,.57,1.15,1.46,1.94,1.86l.43.21.59,2.65,2-2.41,4.27-.56a1.75,1.75,0,0,0,0-3.5Z" transform="translate(-0.58 0.46)"/><path class="cls-2" d="M77.37,59.16a1.58,1.58,0,0,1-1.08-.61l-.05-.06L73.9,55.71l-3.31-.44a3.75,3.75,0,0,1,.08-7.5h7.5a3.77,3.77,0,0,1,3.75,3.75c0,1.68-1.73,2.89-2.63,3.41l-.74,3.27a1.35,1.35,0,0,1-1,.94Zm-6.7-9.39a1.75,1.75,0,1,0,0,3.5h.13l4.13.55,2,2.41.58-2.65.43-.22c.8-.39,2-1.28,2-1.85a1.78,1.78,0,0,0-.52-1.24,1.73,1.73,0,0,0-1.23-.51Z" transform="translate(-0.58 0.46)"/><path class="cls-2" d="M57.46,68.16l-.2,0a1.39,1.39,0,0,1-1-.94l-.06-.2-.68-3.07c-.9-.52-2.62-1.73-2.62-3.41a3.74,3.74,0,0,1,3.75-3.75h7.5a3.75,3.75,0,0,1,.07,7.5l-3.31.44-2.39,2.84A1.56,1.56,0,0,1,57.46,68.16Zm-.79-9.39a1.75,1.75,0,0,0-1.25.52,1.77,1.77,0,0,0-.5,1.23c0,.57,1.15,1.46,1.94,1.86l.43.21.59,2.65,2-2.41,4.27-.56a1.75,1.75,0,0,0,0-3.5Z" transform="translate(-0.58 0.46)"/><circle class="cls-2" cx="55.83" cy="34.48" r="1.25"/></svg>