<svg id="Layer_1" data-name="Layer 1" xmlns="http://www.w3.org/2000/svg" viewBox="0 0 110 110"><defs><style>.cls-1{fill:#292929;}.cls-2{fill:#fff;}</style></defs><title>goodlocation</title><path class="cls-1" d="M109.81,54.81a55,55,0,0,1-44.69,54,54.11,54.11,0,0,1-8.11.93c-.73,0-1.46,0-2.2,0a55,55,0,1,1,55-55Z" transform="translate(0.19 0.19)"/><path class="cls-2" d="M85.91,81.91H23.41a1,1,0,1,1,0-2h62.5a1,1,0,0,1,0,2Z" transform="translate(0.19 0.19)"/><path class="cls-2" d="M31.66,68.41a7.25,7.25,0,1,1,7.25-7.25A7.26,7.26,0,0,1,31.66,68.41Zm0-12.5a5.25,5.25,0,1,0,5.25,5.25A5.25,5.25,0,0,0,31.66,55.91Z" transform="translate(0.19 0.19)"/><path class="cls-2" d="M66.41,72.91a6.5,6.5,0,1,1,6.5-6.5A6.51,6.51,0,0,1,66.41,72.91Zm0-11a4.5,4.5,0,1,0,4.5,4.5A4.49,4.49,0,0,0,66.41,61.91Z" transform="translate(0.19 0.19)"/><path class="cls-2" d="M31.41,81.72a1,1,0,0,1-1-1V67.41a1,1,0,1,1,2,0V80.72A1,1,0,0,1,31.41,81.72Z" transform="translate(0.19 0.19)"/><path class="cls-2" d="M66.41,81.72a1,1,0,0,1-1-1V71.91a1,1,0,0,1,2,0v8.81A1,1,0,0,1,66.41,81.72Z" transform="translate(0.19 0.19)"/><path class="cls-2" d="M41.24,81.72a1,1,0,0,1-1-1V52.92a1,1,0,0,0-1-1H30.92a1,1,0,0,0-1,1v2.49a1,1,0,0,1-2,0V52.92a3,3,0,0,1,3-3h8.31a3,3,0,0,1,3,3v27.8A1,1,0,0,1,41.24,81.72Z" transform="translate(0.19 0.19)"/><path class="cls-2" d="M38.41,51.41a1,1,0,0,1-1-1V37.74a3,3,0,0,1,.88-2.13l3.32-3.32a1,1,0,0,0,.3-.72V24.24a3,3,0,0,1,.88-2.13l2.48-2.48a3,3,0,0,1,4.27,0L52,22.11a3,3,0,0,1,.89,2.13v7.37a1,1,0,0,0,.27.7l6.46,6.91a1,1,0,0,1,0,1.42,1,1,0,0,1-1.41,0l-6.46-6.92a3,3,0,0,1-.81-2.06V24.24a1,1,0,0,0-.3-.72L48.13,21a1,1,0,0,0-1.45,0l-2.47,2.48a1,1,0,0,0-.3.72v7.33A3,3,0,0,1,43,33.71L39.71,37a1,1,0,0,0-.3.72V50.41A1,1,0,0,1,38.41,51.41Z" transform="translate(0.19 0.19)"/><path class="cls-2" d="M51.91,81.91a1,1,0,0,1-1-1V41.27a3,3,0,0,1,3.49-3l14,2.33a3,3,0,0,1,2.51,3V61.91a1,1,0,0,1-2,0V43.6a1,1,0,0,0-.84-1l-14-2.33a1,1,0,0,0-1.16,1V80.91A1,1,0,0,1,51.91,81.91Z" transform="translate(0.19 0.19)"/><path class="cls-2" d="M83.41,81.41a1,1,0,0,1-1-1V51.61a1,1,0,0,0-.54-.89l-6.28-3.36A3,3,0,0,1,74,44.7V30.76a1,1,0,0,0-.43-.83,1,1,0,0,0-.92-.12l-8.58,3.06a1,1,0,0,0-.67,1v6.09a1,1,0,0,1-2,0V33.82a3,3,0,0,1,2-2.83L72,27.92a3,3,0,0,1,4,2.84V44.7a1,1,0,0,0,.53.89L82.82,49a3,3,0,0,1,1.59,2.65v28.8A1,1,0,0,1,83.41,81.41Z" transform="translate(0.19 0.19)"/><path class="cls-2" d="M47.41,19.91a1,1,0,0,1-1-1v-3a1,1,0,1,1,2,0v3A1,1,0,0,1,47.41,19.91Z" transform="translate(0.19 0.19)"/><path class="cls-2" d="M63.65,56.68h-.26l-6-.55a2.75,2.75,0,0,1-1.86-1,2.71,2.71,0,0,1-.62-2,2.74,2.74,0,0,1,3-2.48l6,.56a2.68,2.68,0,0,1,1.86,1,2.72,2.72,0,0,1,.62,2,2.74,2.74,0,0,1-2.73,2.49Zm-.08-2a.72.72,0,0,0,.55-.17.74.74,0,0,0,.27-.51.72.72,0,0,0-.17-.54.74.74,0,0,0-.51-.27l-6-.56a.74.74,0,0,0-.55.17.78.78,0,0,0-.27.51.74.74,0,0,0,.17.55.78.78,0,0,0,.51.27Z" transform="translate(0.19 0.19)"/><path class="cls-2" d="M63.65,49.68h-.26l-6-.55a2.75,2.75,0,0,1-1.86-1,2.71,2.71,0,0,1-.62-2,2.74,2.74,0,0,1,3-2.48l6,.56a2.68,2.68,0,0,1,1.86,1,2.72,2.72,0,0,1,.62,2,2.74,2.74,0,0,1-2.73,2.49Zm-.08-2a.72.72,0,0,0,.55-.17.74.74,0,0,0,.27-.51.72.72,0,0,0-.17-.54.74.74,0,0,0-.51-.27l-6-.56a.75.75,0,0,0-.82.68.74.74,0,0,0,.17.55.78.78,0,0,0,.51.27Z" transform="translate(0.19 0.19)"/><path class="cls-2" d="M44.66,43.66a3,3,0,0,1-3-3v-1.5a3,3,0,0,1,6,0v1.5A3,3,0,0,1,44.66,43.66Zm0-5.5a1,1,0,0,0-1,1v1.5a1,1,0,0,0,2,0v-1.5A1,1,0,0,0,44.66,38.16Z" transform="translate(0.19 0.19)"/><path class="cls-2" d="M51.91,43.64h-.14A3,3,0,0,1,50,42.77a3,3,0,0,1-.87-2.11v-1.5a3,3,0,0,1,6,0v.13a1,1,0,0,1-2,0v-.13a1,1,0,0,0-1-1,1,1,0,0,0-1,1v1.5a.94.94,0,0,0,.29.69,1,1,0,0,0,.59.3,1,1,0,0,1-.13,2Z" transform="translate(0.19 0.19)"/><path class="cls-2" d="M44.91,51.91a3,3,0,0,1-3-3v-1.5a3,3,0,0,1,6,0v1.5A3,3,0,0,1,44.91,51.91Zm0-5.5a1,1,0,0,0-1,1v1.5a1,1,0,0,0,2,0v-1.5A1,1,0,0,0,44.91,46.41Z" transform="translate(0.19 0.19)"/><path class="cls-2" d="M51.91,51.84a1,1,0,0,1-.25,0A3,3,0,0,1,50.28,51a3,3,0,0,1-.87-2.11v-1.5a3,3,0,0,1,2.24-2.91,1,1,0,0,1,.51,1.94,1,1,0,0,0-.75,1v1.5a.94.94,0,0,0,.29.69.93.93,0,0,0,.45.27,1,1,0,0,1-.24,2Z" transform="translate(0.19 0.19)"/><path class="cls-2" d="M44.91,60.41a3,3,0,0,1-3-3v-1.5a3,3,0,0,1,6,0v1.5A3,3,0,0,1,44.91,60.41Zm0-5.5a1,1,0,0,0-1,1v1.5a1,1,0,0,0,2,0v-1.5A1,1,0,0,0,44.91,54.91Z" transform="translate(0.19 0.19)"/><path class="cls-2" d="M51.91,60.34a1,1,0,0,1-.25,0,3,3,0,0,1-1.38-.79,3,3,0,0,1-.87-2.11v-1.5A3,3,0,0,1,51.65,53a1,1,0,0,1,.51,1.94,1,1,0,0,0-.75,1v1.5a.94.94,0,0,0,.29.69.93.93,0,0,0,.45.27,1,1,0,0,1-.24,2Z" transform="translate(0.19 0.19)"/><path class="cls-2" d="M44.91,69.41a3,3,0,0,1-3-3v-1.5a3,3,0,0,1,6,0v1.5A3,3,0,0,1,44.91,69.41Zm0-5.5a1,1,0,0,0-1,1v1.5a1,1,0,0,0,2,0v-1.5A1,1,0,0,0,44.91,63.91Z" transform="translate(0.19 0.19)"/><path class="cls-2" d="M51.91,69.34a1,1,0,0,1-.25,0,3,3,0,0,1-1.38-.79,3,3,0,0,1-.87-2.11v-1.5A3,3,0,0,1,51.65,62a1,1,0,0,1,.51,1.94,1,1,0,0,0-.75,1v1.5a.94.94,0,0,0,.29.69.93.93,0,0,0,.45.27,1,1,0,0,1-.24,2Z" transform="translate(0.19 0.19)"/><path class="cls-2" d="M44.91,77.91a3,3,0,0,1-3-3v-1.5a3,3,0,0,1,6,0v1.5A3,3,0,0,1,44.91,77.91Zm0-5.5a1,1,0,0,0-1,1v1.5a1,1,0,0,0,2,0v-1.5A1,1,0,0,0,44.91,72.41Z" transform="translate(0.19 0.19)"/><path class="cls-2" d="M51.91,77.84a1,1,0,0,1-.25,0A3,3,0,0,1,50.28,77a3,3,0,0,1-.87-2.11v-1.5a3,3,0,0,1,2.24-2.91,1,1,0,0,1,.51,1.94,1,1,0,0,0-.75,1v1.5a.94.94,0,0,0,.29.69.93.93,0,0,0,.45.27,1,1,0,0,1-.24,2Z" transform="translate(0.19 0.19)"/></svg>