<svg xmlns="http://www.w3.org/2000/svg" width="24" height="22" viewBox="0 0 24 22">
  <g fill="none" fill-rule="evenodd">
    <path fill="#58ED9F" d="M3 11L6 11 6 12 3 12 2 12 2 7 3 7 3 11zM3 13L6 13 6 14 3 14 3 17 2 17 2 13 3 13zM21 11L21 7 22 7 22 11 22 12 18 12 18 11 21 11zM22 14L22 17 21 17 21 14 18 14 18 13 22 13 22 14z"/>
    <g transform="translate(5 3)">
      <path fill="#E6E6E6" d="M10,12 L10,8 L8,8 L8,12 L2,12 L2,7 L7,2 L12,7 L12,12 L10,12 Z M4,8 L4,10 L6,10 L6,8 L4,8 Z"/>
      <polygon fill="#292929" points="0 6.995 2 6.995 7 2 12 6.995 14 6.995 12 5 12 1 10 1 10 3 7 0"/>
    </g>
    <g transform="translate(0 18)">
      <rect width="6" height="4" fill="#CCCCCC"/>
      <polygon fill="#E6E6E6" points="0 0 6 0 3 3"/>
    </g>
    <path fill="#292929" d="M0,2 L1,2 L1,5 L0,5 L0,2 Z M0.5,1 C0.223857625,1 0,0.776142375 0,0.5 C0,0.223857625 0.223857625,0 0.5,0 C0.776142375,0 1,0.223857625 1,0.5 C1,0.776142375 0.776142375,1 0.5,1 Z M3,3.5 L3,5 L2,5 L2,2 L3,2 L3,2.61537135 C3.17603362,2.25400119 3.58401278,2 4,2 C4.55228475,2 5,2.44771525 5,3 L5,5 L4,5 L4,3.5 C4,3.22385763 3.77614237,3 3.5,3 C3.22385763,3 3,3.22385763 3,3.5 Z" transform="translate(19 17)"/>
    <g transform="translate(18)">
      <rect width="6" height="6" fill="#292929"/>
      <path fill="#F9F9F9" d="M4,4 L5,4 L5,5 L4,5 L4,6 L3,6 L3,5 L2,5 L2,4 L3,4 L3,3 C3,2.44771525 3.44771525,2 4,2 L5,2 L5,3 L4,3 L4,4 Z"/>
    </g>
    <polygon fill="#58ED9F" points="2 0 4 0 6 6 4 6"/>
    <path fill="#34D583" d="M2,0 L4,0 L4,6 L2,0 Z"/>
    <polygon fill="#757575" points="2 0 4 0 2 6 0 6"/>
  </g>
</svg>
