<svg id="Layer_1" data-name="Layer 1" xmlns="http://www.w3.org/2000/svg" viewBox="0 0 110 110"><defs><style>.cls-1{fill:#292929;}.cls-2{fill:#fff;}</style></defs><title>livs arbete</title><circle class="cls-1" cx="55" cy="55" r="55"/><path class="cls-2" d="M49.4,83.18,29.79,76.82l.59-5.27c0-.82.62-7.77,9.58-9.86a20.46,20.46,0,0,0,3.13-3.19l.21-.26.33-.09a12.32,12.32,0,0,1,7.92.93c3.23-.57,11.52-2.41,11.61-2.43l.48-.11.38.32c.16.14,3.92,3.38,5.9,10.29C72,74.53,52,82.21,49.72,83.06ZM32,75.43l17.39,5.63A87.88,87.88,0,0,0,59.42,76.4c6.16-3.4,9.21-6.5,8.58-8.7a21.32,21.32,0,0,0-4.93-9c-2,.43-8.92,2-11.53,2.39l-.35.06L50.88,61a10.11,10.11,0,0,0-6.46-1,20.69,20.69,0,0,1-3.49,3.43l-.16.1-.18,0c-8.06,1.79-8.21,7.78-8.21,8v.11Z" transform="translate(-0.53 -0.21)"/><path class="cls-1" d="M82.38,84.62l5.5-14s-41.5-9-47-.5c-1.5,2.5,16.5-1,17.5,3,0,5.5-20,5-33.5-4.5-6-4.24,4.5,20,26.5,20.5C60.87,89.34,71.88,79.62,82.38,84.62Z" transform="translate(-0.53 -0.21)"/><path class="cls-2" d="M51.7,90.13h-.35c-16-.36-26.84-13.2-28.88-19.68-.46-1.49-.34-2.51.38-3s1.54-.35,2.6.4c10.78,7.58,25.82,9.31,30.71,6.78.74-.38,1.14-.83,1.21-1.33-.66-1.36-7.11-1.23-10.25-1.17-4.61.09-6.51.08-7.16-1A1.4,1.4,0,0,1,40,69.61c5.73-8.85,43.75-.9,48.07,0l1.15.25L82.91,86l-1-.46c-6-2.86-12.35-.55-18.48,1.69C59.37,88.71,55.5,90.13,51.7,90.13ZM24.25,69.41a18.88,18.88,0,0,0,3.43,6.17c2.83,3.67,10.81,12.25,23.72,12.55,3.55.08,7.35-1.32,11.38-2.79,6.21-2.26,12.61-4.6,19-2l4.69-11.93c-3-.61-11.43-2.24-20.19-3.18C49.7,66.4,44.11,68.33,42.25,70c1.13.12,3.21.08,4.83,0,5.66-.11,11.51-.22,12.27,2.79l0,.12v.12a3.62,3.62,0,0,1-2.3,3.25c-5.26,2.72-21,1.35-32.78-6.93Z" transform="translate(-0.53 -0.21)"/><rect class="cls-2" x="43.46" y="49.1" width="19.45" height="2" transform="translate(1.55 102.12) rotate(-88.91)"/><path class="cls-2" d="M57.76,43.56a12.16,12.16,0,0,1-4.56-.94l-.6-.24,0-.64c0-.39-.28-9.53,16-11.74L70,29.81l-.34,1.42c-1.31,5.46-4,9.45-7.44,11.26A9.72,9.72,0,0,1,57.76,43.56ZM54.62,41a8.34,8.34,0,0,0,6.69-.31c2.66-1.37,4.77-4.36,6-8.49C56.61,34.09,54.89,39.2,54.62,41Z" transform="translate(-0.53 -0.21)"/><path class="cls-2" d="M52.48,41.2a11.6,11.6,0,0,1-6.81-2.32c-4.29-3.14-7.05-9-8.22-17.46l-.17-1.27,1.27.14c7.38.82,12.84,3.61,15.4,7.85,2.07,3.42,2.18,7.7.34,12.37l-.2.53-.56.09A6.32,6.32,0,0,1,52.48,41.2ZM39.63,22.45c1.17,7.15,3.58,12.12,7.17,14.78a9.48,9.48,0,0,0,5.85,2c1.4-3.89,1.26-7.26-.41-10C50.16,25.72,45.7,23.35,39.63,22.45Z" transform="translate(-0.53 -0.21)"/><path class="cls-2" d="M53.37,41.12a1,1,0,0,1-1-.73S51,35.22,48.32,33.46a1,1,0,1,1,1.11-1.67c3.27,2.19,4.84,7.83,4.91,8.07a1,1,0,0,1-.7,1.23Z" transform="translate(-0.53 -0.21)"/><path class="cls-2" d="M53.37,42.62a1,1,0,0,1-.52-.15,1,1,0,0,1-.33-1.36c.07-.12,1.79-2.89,7.16-4a1,1,0,1,1,.39,2c-4.43.88-5.83,3-5.84,3A1,1,0,0,1,53.37,42.62Z" transform="translate(-0.53 -0.21)"/></svg>