<svg xmlns="http://www.w3.org/2000/svg" width="24" height="24" viewBox="0 0 24 24">
  <g fill="none" fill-rule="evenodd">
    <polygon fill="#040E18" points="0 4.109 3.978 4.109 3.978 .13 0 .13"/>
    <polygon fill="#E4ECF4" points="3.978 4.109 7.957 4.109 7.957 .13 3.978 .13"/>
    <polygon fill="#040E18" points="7.956 4.109 11.934 4.109 11.934 .13 7.956 .13"/>
    <polygon fill="#040E18" points="15.913 4.109 19.891 4.109 19.891 .13 15.913 .13"/>
    <polygon fill="#E4ECF4" points="11.934 4.109 15.914 4.109 15.914 .13 11.934 .13"/>
    <polygon fill="#E4ECF4" points="0 8.087 3.978 8.087 3.978 4.109 0 4.109"/>
    <polygon fill="#E4ECF4" points="15.913 8.087 19.891 8.087 19.891 4.109 15.913 4.109"/>
    <polygon fill="#040E18" points="3.978 8.087 7.956 8.087 7.956 4.109 3.978 4.109"/>
    <polygon fill="#040E18" points="11.934 8.087 15.913 8.087 15.913 4.109 11.934 4.109"/>
    <polygon fill="#E4ECF4" points="7.956 8.087 11.934 8.087 11.934 4.109 7.956 4.109"/>
    <polygon fill="#040E18" points="0 12.066 3.978 12.066 3.978 8.086 0 8.086"/>
    <polygon fill="#E4ECF4" points="3.978 12.066 7.956 12.066 7.956 8.087 3.978 8.087"/>
    <polygon fill="#040E18" points="7.956 12.066 11.934 12.066 11.934 8.087 7.956 8.087"/>
    <polygon fill="#040E18" points="15.913 12.066 19.891 12.066 19.891 8.087 15.913 8.087"/>
    <polygon fill="#F2F2F2" points="11.934 12.066 15.913 12.066 15.913 8.087 11.934 8.087"/>
    <polygon fill="#E4ECF4" points="0 16.044 3.978 16.044 3.978 12.066 0 12.066"/>
    <polygon fill="#34D583" points="15.913 16.044 19.891 16.044 19.891 12.066 15.913 12.066"/>
    <polygon fill="#040E18" points="3.978 16.044 7.956 16.044 7.956 12.066 3.978 12.066"/>
    <polygon fill="#040E18" points="11.934 16.044 15.913 16.044 15.913 12.066 11.934 12.066"/>
    <polygon fill="#34D583" points="7.956 16.044 11.934 16.044 11.934 12.066 7.956 12.066"/>
    <polygon fill="#040E18" points="0 20.022 3.978 20.022 3.978 16.043 0 16.043"/>
    <polygon fill="#34D583" points="3.978 20.022 7.956 20.022 7.956 16.044 3.978 16.044"/>
    <polygon fill="#040E18" points="7.956 20.022 11.934 20.022 11.934 16.044 7.956 16.044"/>
    <polygon fill="#040E18" points="15.913 20.022 19.891 20.022 19.891 16.044 15.913 16.044"/>
    <polygon fill="#E4ECF4" points="19.891 4.109 23.87 4.109 23.87 .13 19.891 .13"/>
    <polygon fill="#040E18" points="19.891 8.087 23.87 8.087 23.87 4.109 19.891 4.109"/>
    <polygon fill="#34D583" points="19.891 12.066 23.87 12.066 23.87 8.086 19.891 8.086"/>
    <polygon fill="#E4ECF4" points="19.891 20.022 23.87 20.022 23.87 16.043 19.891 16.043"/>
    <polygon fill="#040E18" points="19.891 16.044 23.87 16.044 23.87 12.066 19.891 12.066"/>
    <polygon fill="#34D583" points="11.934 20.022 15.913 20.022 15.913 16.044 11.934 16.044"/>
    <polygon fill="#040E18" points="19.891 24 23.87 24 23.87 20.022 19.891 20.022"/>
    <polygon fill="#34D583" points="0 24 3.978 24 3.978 20.022 0 20.022"/>
    <polygon fill="#040E18" points="3.978 24 7.957 24 7.957 20.022 3.978 20.022"/>
    <polygon fill="#040E18" points="11.934 24 15.914 24 15.914 20.022 11.934 20.022"/>
    <polygon fill="#E4ECF4" points="15.913 24 19.891 24 19.891 20.022 15.913 20.022"/>
    <polygon fill="#E4ECF4" points="7.956 24 11.934 24 11.934 20.022 7.956 20.022"/>
  </g>
</svg>
