<svg xmlns="http://www.w3.org/2000/svg" xmlns:xlink="http://www.w3.org/1999/xlink" width="24" height="24" viewBox="0 0 24 24">
  <defs>
    <polygon id="a" points="0 24 23.902 24 23.902 0 0 0"/>
  </defs>
  <g fill="none" fill-rule="evenodd">
    <polygon fill="#292929" points="21.91 21 22.907 21 22.907 13 21.91 13"/>
    <polygon fill="#8091A3" points="13.943 24 20.913 24 20.913 23 13.943 23"/>
    <polygon fill="#8091A3" points="10.955 22 23.903 22 23.903 13 10.955 13"/>
    <polygon fill="#F4F9FE" points="11.951 21 22.906 21 22.906 14 11.951 14"/>
    <path fill="#0C1620" d="M18.9221311,22.5 C18.9221311,22.776 19.1452131,23 19.420082,23 L15.4364754,23 C15.7113443,23 15.9344262,22.776 15.9344262,22.5 C15.9344262,22.224 15.7113443,22 15.4364754,22 L19.420082,22 C19.1452131,22 18.9221311,22.224 18.9221311,22.5 Z"/>
    <mask id="b" fill="white">
      <use xlink:href="#a"/>
    </mask>
    <polygon fill="#1B252F" points="15.934 19 20.914 19 20.914 17 15.934 17" mask="url(#b)"/>
    <polygon fill="#34D583" points="1.992 21 10.955 21 10.955 20 1.992 20" mask="url(#b)"/>
    <polygon fill="#34D583" points="6.971 17 10.955 17 10.955 16 6.971 16" mask="url(#b)"/>
    <polygon fill="#1B252F" points="6.971 17 8.963 17 8.963 16 6.971 16" mask="url(#b)"/>
    <polygon fill="#34D583" points="1.992 21 2.988 21 2.988 7 1.992 7" mask="url(#b)"/>
    <polygon fill="#1B252F" points="6.971 17 7.967 17 7.967 13 6.971 13" mask="url(#b)"/>
    <path fill="#1B252F" d="M9.95901639,12 L4.9795082,12 L4.9795082,10.998 C4.9795082,10.447 5.42467623,10 5.97341803,10 L8.95913115,10 C9.51185656,10 9.95901639,10.449 9.95901639,11.004 L9.95901639,12 Z" mask="url(#b)"/>
    <path fill="#34D583" d="M4.9795082 6L0 6 0 4.998C0 4.447.445168033 4 .993909836 4L3.97962295 4C4.53234836 4 4.9795082 4.449 4.9795082 5.004L4.9795082 6zM17.9262295 9L12.9467213 9 12.9467213 7.998C12.9467213 7.447 13.3918893 7 13.9406311 7L16.9263443 7C17.4790697 7 17.9262295 7.449 17.9262295 8.004L17.9262295 9zM23.9016393 6L18.9221311 6 18.9221311 4.998C18.9221311 4.447 19.3672992 4 19.916041 4L22.9017541 4C23.4544795 4 23.9016393 4.449 23.9016393 5.004L23.9016393 6z" mask="url(#b)"/>
    <polygon fill="#34D583" points="20.914 13 21.91 13 21.91 7 20.914 7" mask="url(#b)"/>
    <polygon fill="#34D583" points="14.939 13 15.934 13 15.934 10 14.939 10" mask="url(#b)"/>
    <path fill="#1B252F" d="M8.96311475,7.5 C8.96311475,8.329 8.29386885,9 7.4692623,9 C6.64465574,9 5.97540984,8.329 5.97540984,7.5 C5.97540984,6.671 6.64465574,6 7.4692623,6 C8.29386885,6 8.96311475,6.671 8.96311475,7.5" mask="url(#b)"/>
    <path fill="#34D583" d="M16.9303279 4.5C16.9303279 5.329 16.261082 6 15.4364754 6 14.6118689 6 13.942623 5.329 13.942623 4.5 13.942623 3.671 14.6118689 3 15.4364754 3 16.261082 3 16.9303279 3.671 16.9303279 4.5M22.9057377 1.5C22.9057377 2.329 22.2364918 3 21.4118852 3 20.5872787 3 19.9180328 2.329 19.9180328 1.5 19.9180328.671 20.5872787 0 21.4118852 0 22.2364918 0 22.9057377.671 22.9057377 1.5M3.98360656 1.5C3.98360656 2.329 3.31436066 3 2.4897541 3 1.66514754 3 .995901639 2.329.995901639 1.5.995901639.671 1.66514754 0 2.4897541 0 3.31436066 0 3.98360656.671 3.98360656 1.5" mask="url(#b)"/>
    <polygon fill="#34D583" points="13.943 19 18.922 19 18.922 17 13.943 17" mask="url(#b)"/>
  </g>
</svg>
