<svg xmlns="http://www.w3.org/2000/svg" viewBox="0 0 24 24"><title>icn-service--growthanalysis</title><g id="Layer_2" data-name="Layer 2"><g id="prodct"><polygon points="14 0 0 0 0 19 5 24 19 24 19 5 19 0 14 0" style="fill:#f2f2f2"/><rect x="18.84" y="17.78" width="2.83" height="4.95" transform="translate(-8.39 20.25) rotate(-45)" style="fill:#757575"/><rect x="19.63" y="20.69" width="4.24" height="2.12" transform="translate(-9.01 21.75) rotate(-45)" style="fill:#1a1a1a"/><rect x="7" y="3" width="9" height="1" style="fill:#d9d9d9"/><rect x="7" y="5" width="9" height="1" style="fill:#d9d9d9"/><rect x="3" y="7" width="13.07" height="1" style="fill:#d9d9d9"/><rect x="3" y="9" width="13" height="1" style="fill:#d9d9d9"/><path d="M6.31,6h-1l-.13-.42h-1L4,6H3L4.1,3H5.22ZM4.63,3.84,4.31,4.91H5L4.65,3.84Z" style="fill:#1a1a1a"/><polygon points="5 24 5 19 0 19 5 24" style="fill:#d9d9d9"/><polyline points="12 12 14 14 18 10 19 11 14 16 12 14 10 16 7 19 4 16 1 19 0 19 0 18 4 14 7 17 9 15 10 14" style="fill:#ff6665"/><rect x="15.63" y="16.69" width="4.24" height="2.12" transform="translate(-7.35 17.75) rotate(-45)" style="fill:#1a1a1a"/><path d="M13,9a4,4,0,1,1-4,4,4,4,0,0,1,4-4m0-3a7,7,0,1,0,7,7,7,7,0,0,0-7-7Z" style="fill:#757575"/></g></g></svg>