<svg xmlns="http://www.w3.org/2000/svg" xmlns:xlink="http://www.w3.org/1999/xlink" width="606" height="348" viewBox="0 0 606 348">
  <defs>
    <polygon id="a" points=".27 0 625.27 0 625.27 385 .27 385"/>
    <linearGradient id="c" x1="66.531%" x2="17.1%" y1="12.223%" y2="83.645%">
      <stop offset="0%" stop-color="#58EDCD"/>
      <stop offset="100%" stop-color="#2387EB"/>
    </linearGradient>
    <linearGradient id="d" x1="1.459%" x2="63.48%" y1="83.645%" y2="21.654%">
      <stop offset="0%" stop-color="#58EDCD"/>
      <stop offset="100%" stop-color="#2387EB"/>
    </linearGradient>
  </defs>
  <g fill="none" fill-rule="evenodd" transform="matrix(-1 0 0 1 606.27 -37)">
    <mask id="b" fill="white">
      <use xlink:href="#a"/>
    </mask>
    <g fill-opacity=".3" mask="url(#b)">
      <g transform="translate(-234.73 -77)">
        <path fill="url(#c)" d="M75.5049378,195.415213 C190.124856,243.765595 305.327929,281.467511 421.114157,308.520961 C594.7935,349.101136 724.801623,429.719761 802.244052,495.416308 C853.872338,539.214005 598.665757,544.669565 36.6243094,511.782988 L75.5049378,195.415213 Z"/>
        <path fill="url(#c)" d="M72.2022099,153.421182 C158.051335,152.146212 258.457533,190.523917 373.420805,268.554297 C545.865711,385.599868 651.07885,448.341547 843.127573,462.213006 C971.160054,471.460646 735.039534,489.808182 134.766013,517.255615 L72.2022099,153.421182 Z"/>
        <path fill="url(#c)" d="M28.6372669,196.465833 C261.517734,226.096584 421.165933,266.088522 507.581863,316.441647 C637.205758,391.971334 676.822143,506.497059 844.451934,573.194977 C956.205128,617.660255 806.199423,659.592009 394.43482,698.990237 L0,482.529804 L28.6372669,196.465833 Z"/>
        <path fill="url(#d)" d="M187.380758,0.139535393 C256.375616,184.331726 333.901158,307.429302 419.957385,369.432264 C506.013612,431.435226 681.536432,489.186463 946.525846,542.685974 L246.79716,555.162079 L167.425414,112.736389 L187.380758,0.139535393 Z"/>
      </g>
    </g>
  </g>
</svg>
